<?xml version="1.0" encoding="utf-8"?>
<!-- Generator: Adobe Illustrator 19.0.0, SVG Export Plug-In . SVG Version: 6.00 Build 0)  -->
<svg version="1.1" id="Layer_1" xmlns="http://www.w3.org/2000/svg" xmlns:xlink="http://www.w3.org/1999/xlink" x="0px" y="0px"
	 viewBox="-293 385 24 24" style="enable-background:new -293 385 24 24;" xml:space="preserve">
<style type="text/css">
	.st0{fill:none;}
	.st1{fill:#FFFFFF;}
</style>
<path class="st0" d="M-293,385h24v24h-24V385z"/>
<path class="st1" d="M-276.5,398c0.8,0,1.4-0.4,1.8-1l3.6-6.5c0.4-0.7-0.1-1.5-0.9-1.5h-14.8l-0.9-2h-3.3v2h2l3.6,7.6l-1.4,2.4
	c-0.7,1.3,0.2,3,1.8,3h12v-2h-12l1.1-2H-276.5z M-285.8,391h12.1l-2.8,5h-7L-285.8,391z M-285,403c-1.1,0-2,0.9-2,2s0.9,2,2,2
	c1.1,0,2-0.9,2-2S-283.9,403-285,403z M-275,403c-1.1,0-2,0.9-2,2s0.9,2,2,2c1.1,0,2-0.9,2-2S-273.9,403-275,403z"/>
</svg>
